<?xml version="1.0" standalone="no"?>
<!DOCTYPE svg PUBLIC "-//W3C//DTD SVG 20010904//EN"
 "http://www.w3.org/TR/2001/REC-SVG-20010904/DTD/svg10.dtd">
<svg version="1.0" xmlns="http://www.w3.org/2000/svg"
 width="1653.000000pt" height="1653.000000pt" viewBox="0 0 1653.000000 1653.000000"
 preserveAspectRatio="xMidYMid meet">
<metadata>
Created by potrace 1.11, written by Peter Selinger 2001-2013
</metadata>
<g transform="translate(0.000000,1653.000000) scale(0.100000,-0.100000)"
fill="#000000" stroke="none">
<path d="M7505 16519 c-561 -15 -1156 -115 -1797 -300 -415 -120 -605 -189
-1128 -409 -319 -134 -924 -448 -1235 -640 -459 -284 -770 -522 -1094 -836
-266 -258 -399 -416 -653 -774 -326 -462 -488 -785 -685 -1365 -115 -340 -197
-747 -247 -1235 -59 -566 -69 -1479 -21 -1960 51 -506 202 -1138 467 -1949
l113 -345 145 -69 c80 -39 146 -71 147 -72 9 -6 -73 -288 -95 -328 -32 -59
-55 -76 -219 -166 -171 -94 -210 -123 -234 -174 -43 -97 -19 -236 187 -1047
187 -736 234 -879 397 -1185 178 -337 374 -626 627 -930 204 -243 575 -621
646 -658 45 -23 208 -47 318 -47 56 0 205 9 331 20 392 33 720 43 1115 36 201
-4 489 -8 641 -9 228 -2 279 -5 294 -17 23 -19 65 -112 98 -216 42 -133 53
-265 38 -472 -26 -376 -60 -603 -156 -1047 -25 -116 -45 -223 -45 -238 0 -41
15 -63 51 -76 35 -12 3360 -14 3827 -2 l254 6 24 28 c32 37 30 55 -11 136 -34
69 -90 239 -120 368 -70 299 -103 671 -110 1238 -1 149 -6 279 -9 290 -6 18 6
24 111 62 l118 42 715 4 c760 5 777 6 1220 63 240 30 320 46 480 91 264 75
424 142 675 282 186 104 270 161 444 300 267 213 391 336 627 621 309 372 855
1223 1049 1635 60 126 229 576 304 805 89 274 227 798 310 1174 28 126 54 232
57 235 12 12 -53 -613 -86 -839 -11 -74 -34 -227 -51 -340 -47 -321 -146 -860
-188 -1030 -68 -273 -167 -532 -330 -859 -116 -234 -200 -379 -376 -646 -273
-415 -442 -602 -728 -807 -159 -113 -518 -280 -851 -393 -219 -75 -295 -91
-476 -102 l-125 -7 140 -18 c289 -37 486 -3 890 155 169 66 499 230 601 299
199 133 441 356 623 573 88 106 367 516 491 724 125 211 291 586 426 962 128
360 164 489 255 917 83 392 87 413 138 807 67 512 80 753 76 1350 -3 527 -17
804 -65 1302 -62 646 -87 766 -282 1383 -103 328 -161 491 -226 640 -67 152
-419 858 -487 975 -403 697 -1065 1531 -1609 2029 -267 245 -320 290 -514 434
-671 498 -1083 754 -1637 1019 -426 204 -935 360 -1605 492 -529 104 -1081
135 -1975 110z m-4356 -4434 c75 -436 208 -1003 310 -1330 31 -96 232 -647
276 -754 34 -81 154 -322 213 -426 201 -353 868 -1302 1135 -1614 l55 -64 7
-286 c4 -157 5 -385 1 -506 -10 -336 -59 -844 -111 -1150 -24 -143 -53 -322
-64 -397 -33 -213 -125 -667 -169 -828 -22 -80 -48 -179 -57 -220 -17 -74 -97
-360 -109 -390 -5 -13 24 -23 166 -58 332 -80 594 -132 698 -139 l75 -6 46 59
c25 33 67 91 92 130 86 135 359 609 489 849 72 132 197 359 278 505 187 335
306 574 430 860 112 258 132 300 139 300 3 0 51 -39 106 -86 54 -46 136 -110
182 -141 78 -53 83 -55 105 -41 34 22 263 232 413 378 162 157 232 211 341
261 156 72 269 54 384 -61 142 -141 354 -504 531 -905 73 -167 98 -252 105
-360 6 -78 5 -82 -34 -160 -45 -91 -92 -157 -173 -242 -128 -132 -388 -382
-604 -577 -126 -115 -328 -309 -448 -432 -257 -264 -286 -288 -335 -287 -46 1
-178 69 -313 160 -178 120 -212 131 -275 92 -67 -41 -114 -119 -170 -281 -45
-130 -96 -231 -238 -471 -151 -256 -163 -279 -150 -314 5 -16 22 -34 37 -41
55 -27 78 -6 181 167 209 348 260 445 296 556 32 99 96 235 111 235 7 0 66
-36 131 -80 247 -167 397 -212 510 -154 18 9 70 53 115 97 54 53 84 75 87 66
2 -8 12 -81 21 -164 28 -265 65 -508 91 -598 l24 -87 -33 -53 c-65 -101 -336
-455 -401 -525 l-66 -70 63 -58 c72 -67 121 -95 442 -251 336 -163 584 -273
614 -273 36 0 211 43 369 91 74 22 136 38 140 35 3 -4 9 -150 13 -325 16 -676
54 -1002 161 -1375 49 -172 50 -170 -55 -180 -56 -5 -2778 -11 -3415 -7 -235
1 -263 3 -269 18 -4 9 20 149 51 312 79 401 84 433 106 691 24 267 25 445 6
557 -37 210 -130 427 -206 480 -16 12 -55 14 -188 13 -92 0 -348 4 -569 11
-456 14 -921 3 -1338 -32 -439 -36 -553 -26 -662 54 -50 36 -365 366 -518 542
-258 297 -493 646 -669 995 -100 197 -134 288 -210 550 -102 355 -332 1295
-343 1407 -6 51 -4 55 29 86 20 18 69 50 109 71 199 104 284 166 319 236 21
41 63 180 81 265 7 33 15 64 19 68 4 4 91 -33 194 -83 104 -49 189 -90 190
-90 0 0 1 316 0 703 -1 1070 9 1309 75 1842 42 339 93 635 162 950 22 99 62
288 90 420 27 132 69 314 94 405 24 91 64 248 90 350 69 280 208 720 300 955
95 242 186 458 223 530 l26 50 12 -155 c7 -85 22 -209 33 -275z"/>
</g>
</svg>
