<!-- Generator: Adobe Illustrator 19.0.0, SVG Export Plug-In  -->
<svg version="1.1"
	 xmlns="http://www.w3.org/2000/svg" xmlns:xlink="http://www.w3.org/1999/xlink" xmlns:a="http://ns.adobe.com/AdobeSVGViewerExtensions/3.0/"
	 x="0px" y="0px" width="1529.8px" height="1652.5px" viewBox="0 0 1529.8 1652.5"
	 style="enable-background:new 0 0 1529.8 1652.5;" xml:space="preserve">
<style type="text/css">
	.st0{fill:#FFFFFF;}
	.st1{fill:#9EC2F4;}
</style>
<defs>
</defs>
<path id="XMLID_1_" class="st0" d="M97.9,889.7c0,0,1.9,106.2-7,133.2c-8.9,27-21.9,23.9-21.9,23.9l-28.8,21.9L75,1211.8
	c0,0,36.8,137.2,149.1,223.7h266.4c0,0,44.7,24.9,0,199.8l12.9,5h386.7c0,0-34.8-41.8-26.8-227.7c8-185.9,0-5,0-5l66.6-382.7
	l-673-686L65.1,554.6L97.9,889.7z"/>
<g>
	<path class="st1" d="M1529.6,830.2c1-20.6-1.8-55.9-2-64c-0.5-21-5.6-65.2-8-92c-4.3-48.1-25.7-106.1-38-144
		c-9.1-27.9-45.5-97.1-52-110c-12.8-25.5-50.9-80.3-48-76c-8-11.7-39.3-51.6-45-59c-8.9-11.7-34.9-39.3-46-52
		c-10.4-11.8-42.8-39.7-48-45c-14.4-14.7-90.9-68.2-83-62c-12.7-10-51.3-32.7-56-36c-12.2-8.5-68.2-35.1-70.1-36
		c-8.5-4-38.5-14.5-44.9-17c-5.5-2-40.6-11.8-49-14c-13.9-3.6-59.2-12.6-61-13c-7.3-1.6-46.1-6.9-59-8c-9.6-0.8-45.4-1.9-60-2
		c-15-0.9-76.9,0.8-85,1c-15.8,0.3-47,4.3-52,5c-14.2,2.1-30.9,5.4-45,8c-17.2,3.1-34.3,7.6-45,10c-17.6,4.8-57.3,16.3-75,23
		c-20.1,7.6-62.6,24.9-76,31c-30.3,13.8-51.8,26.3-71,36c-21.6,10.9-63.6,37.6-79,49c-7.6,5.6-21.3,16-27,20
		c-3.4,2.4-11.4,9.5-16,13c-4.3,3.3-28.3,26.7-33,31c-8.3,7.5-29.8,32.1-37,42c-10.5,14.5-19.3,26-28,39c-3.6,5.3-8.7,13.2-13,20
		c-14,22.1-17.3,30.4-26,49c-7.4,15.8-11.7,28.7-17,43c-6.4,17.4-13.3,37.8-18,62c-5.6,28.6-10.3,58.4-13,92
		c-3.2,39.6-4.5,98.4-3,135c1.2,28.7,0.8,27.9,4,57c1.6,14.4,6.9,42.8,11,61c4.2,18.8,15,57.8,19,71c2.5,8.2,5.9,21.7,10,34
		c4.1,12.3,17,50,17,50s13.5,6.6,29.8,14.6c-0.8,1.1-1.5,2.5-1.9,4.2c-1.8,7.4-3.6,14.8-5.7,22.2c-2.2,7.8-7,12.9-14,16.5
		c-8.1,4.2-16.2,8.5-24.1,13.1c-6.1,3.5-11,8.4-11.8,15.7c-0.6,5.4-0.8,10.9,0.5,16.4c8.3,37.4,17.4,74.6,27.3,111.7
		c6.8,25.3,12.9,50.8,24.5,74.6c15.9,32.7,35.3,63.2,57.5,92c22,28.6,46.9,54.4,73.2,79c2.3,2.1,4.9,3.3,7.8,4.2
		c15.3,4.3,30.9,4.1,46.4,2.7c21.2-1.8,42.3-3.8,63.6-4.6c19-0.7,38-0.6,56.9-1.1c14.7-0.4,29.2,1.8,43.8,1.9c17,0.1,34,0.1,51-0.1
		c3,0,5.4,0.7,6.7,3.3c4.8,9.2,8.5,18.8,10.5,29c2.5,12.6,2.5,25.4,1.2,38.2c-1.4,13-1.5,26.2-3.4,39.2c-4.2,28.2-9.9,56.2-16.2,84
		c-2,8.9,1,13.8,10.7,13.8c61.8-0.3,123.7-0.2,199.3-0.2c56.8-0.4,127.5,0.7,198.1-0.8c7.7-0.2,12.1-6.6,8.3-13.1
		c-6.4-11.1-9.7-23.3-12.8-35.5c-8.8-34.3-10.5-69.5-11.9-104.7c-0.6-15.1-0.2-30.3-0.2-45.5c0-2.2,0-4.3-0.7-6.4
		c-0.4-1.2-0.9-2.3-1.5-3.2c7.5-2.4,15.8-5.3,24.3-8.9c16,1.3,113.5,0.3,127,0c25.7-0.6,68.9-6.2,88-9c15.1-2.2,46.8-12.3,54-15
		c9.5-3.6,26.9-12.2,37-18c7.6-4.4,24.1-13.3,35-22c15.8-12.6,35.7-27.8,48-41c22.9-24.4,44.6-51.6,64-81c13.6-20.6,31.7-47.5,45-71
		c8.8-15.5,22.6-39.1,29-56c3.1-8.1,16.4-44.3,19-51c3.8-9.6,13.9-42.5,17-56c1.8-8,11.6-42.5,15-58c2.6-11.9,5.8-27.7,10-45
		c-0.6,13.1-2.6,27.5-3,34c-0.4,6.3-3.9,34.4-5,45c-1.7,7.5-1.9,11.7-6,40c-4.8,33.7-11.4,64.9-12,70c-2,16.3-7.9,36.8-9,42
		c-1.8,8.1-10.5,32.2-14,41c-8.6,21.8-10.5,22.9-16,35c-15.9,35.1-41.1,69.9-46,78c-4.4,7.3-16.5,21.9-20,27
		c-4.3,6.3-12.8,14.3-17,19c-7,7.8-28.5,24-35,28c-17.7,10.8-40.7,19.9-57,27c-9.3,4-36.2,12.3-38,13c-6.4,2.6-19.7,3.5-21,4
		c-2.5,0.9-18.7,0.1-28,1c1.7,0.6,27.1,3.5,32,4c4.7,0.5,22.4-0.5,26-1c7-1,29.8-7.8,38-11c9.5-3.7,26.4-10,34-14
		c10.5-5.5,29.7-14.3,41-22c8.6-5.9,24-18.6,32-26c9.7-9,32.3-34,39-44c15.4-23,27.3-39.7,42-65c10.6-18.2,18.3-39.6,27-58
		c5.5-11.6,15.4-44,20-55c3-7,10.6-37.7,13-48c2.4-10.3,8.6-42.3,11-52c2.4-9.7,8.7-61.5,10-71c1.3-9.5,5.2-56.6,5-66
		C1529.4,874,1529.1,841.4,1529.6,830.2z M859.8,1450.1c0.6,2.7,0.7,5.2,0.8,7.9c0.4,16.6-0.2,33.3,0.8,49.9
		c0.9,15.6,1.7,31.2,3.1,46.7c2.3,24.7,7.3,48.9,15,72.4c2.4,7.4,2.4,7.4-5.1,8.4c-2,0.3-4,0.5-5.9,0.6
		c-91.5,0.8-182.9-0.5-274.4,0.9c-23.3,0.4-46.6-0.4-69.9-0.6c-5.7-0.1-11.3-0.2-17,0.1c-4.4,0.2-4.9-1.4-4.1-5.3
		c4.3-21.3,8.7-42.6,12.5-63.9c3.1-17.7,3.6-35.6,5.3-53.5c1.8-19,0.1-37.4-6.3-55.4c-3.3-9.2-6.5-18.4-13.3-25.9
		c-2.2-2.4-4.4-3.8-7.7-3.6c-2.5,0.2-5,0.4-7.5,0.4c-25.9-0.2-51.9,0-77.8-1.4c-23.2-1.3-46.6,0.2-69.9,0.6
		c-21.1,0.4-42.1,2.3-63.1,4.2c-8.1,0.7-16.3,1.1-24.4,1.3c-12.3,0.3-23.3-2.4-33-12.4c-23.6-24-46.8-48.3-67.2-75.1
		c-14.3-18.8-27.1-38.7-38.5-59.4c-9.5-17.2-18.3-34.8-24-53.6c-8.2-27-15.1-54.3-21.8-81.7c-5.5-22.9-10.9-45.8-16.2-68.8
		c-2.5-10.9-1-14,8.7-19.3c4.7-2.5,9.5-4.8,14.1-7.4c9.7-5.5,19.8-10.6,23.9-22.1c3.5-9.9,6.3-19.9,8-30.3c0-0.1,0-0.3,0-0.4
		c15.9,7.8,31.7,15.5,38.9,18.9c-1.2-4.8,0.6-129,0-135c-0.9-8.6,0.9-45.9,1-56c0.1-14.4,6.3-65.7,8-78c2.5-18.1,7.6-50.4,11-65
		c1.7-7.2,14.8-66.5,16-75c1.2-8.4,8.1-30,10-39c1.5-7.3,5.8-22,7-28c2.2-11.5,8.7-28.7,12-41c2-7.5,5.7-18.8,8-26
		c3.3-10,10.7-25.8,13-33c2.5-7.6,11.4-26.6,13-31c1.4-3.8,3.3-7.2,7-14c-0.7,4.7,1,16.3,1,21c0,7.3,1.5,11.8,3,23
		c1.7,12.7,6.7,32.6,8,41c1.4,9.3,3.7,17.2,5,23c1.4,6.5,5.1,21.8,7,30c2.4,10.7,10.1,36.3,13,45c3.1,9.4,18.6,50.7,22,60
		c1.5,4,4.6,11.8,7,17c2.6,5.6,7.5,15.5,12,24c14,26.3,41.4,66.4,61,94c5.8,8.1,26.2,36.3,32,44c3.8,5.1,16.1,21.4,20,26
		c2.4,2.8,2.8,3.8,12,14c0.4,9.5,0.8,56.1,1,64c0.2,7.1-1,18-1,28c0.7,8.7-4.5,51.2-5,63c-0.7,16.8-9.7,59.2-11,72
		c-1.9,18.6-12.5,65.4-13,70c-0.5,4.8-8.3,28.9-9,34c-1.3,9.3-5.4,20.5-7,28c-1.4,6.3-3.8,13-6,20c4.5,1.5,51.9,12.8,55,13
		c3.1,0.2,19.3,3.6,21,4c1.6,0.4,10.9,1.6,18,2c3.8-3.6,4.9-5.4,10-12c3.2-4.1,11.8-19.4,16-26c5.6-8.8,14.7-25.9,21-36
		c5-8,12.5-22.5,17-31c7-13.2,15.6-28.1,23-42c3.2-6,14.3-24.8,18-32c3.8-7.4,16.7-32.8,20-40c3.1-6.8,12.1-28.2,13-30
		c0.9-1.8,5-11.8,6-14c1-2.2,1.7-3.6,4-8c1.4,1.9,18.4,16.1,21,18c2.3,1.7,10.7,7.5,16,11c2.2-1.7,6.1-3.7,9-7
		c2.9-3.3,21-18.8,23-21c2-2.2,15-14.7,17-17c2-2.3,10.7-9,13-11c8-7.1,13.1-7.8,19-11c4.5-2.4,7.8-3,14-3c3.1,0,6.1,1,9,2
		c5.2,1.8,6,2.6,10,6c1.4,1.2,7.1,7.2,9,10c3.2,4.7,6.8,9.8,11,16c2.3,3.4,8.6,14.6,11,18c2.1,3,6.9,14.1,8,16
		c1.1,1.9,5.7,11.1,8,15c2.3,3.9,6.9,16.3,9,21c2.1,4.8,4.9,9.1,7,17c1.6,5.8,2.8,12.4,3,19c0.2,7.3-4.7,14-7,19
		c-2.6,5.5-9,11.8-12,16c-1.6,2.3-13.1,12.9-16,16c-2.9,3.1-21.6,20.4-26,25c-4.4,4.6-39.2,35-43,39c-3.5,3.7-10.6,10.3-21.5,22.1
		c-8.1,8.1-16.1,16.2-24.3,24.2c-6.7,6.6-9.2,6.9-17.7,2.9c-12.5-5.9-23.8-13.6-35.1-21.5c-7.7-5.4-13.4-5.1-20,1.6
		c-6.3,6.4-9.8,14.7-12.3,23.1c-3,9.8-6.9,19-12,27.8c-8.6,15-17.6,29.7-26.3,44.6c-3,5.2-2.3,9.7,1.8,12.3
		c3.9,2.5,8.7,1.1,11.7-4.1c10.4-17.9,21.6-35.5,31.4-53.8c5.1-9.5,6.7-20.2,11.6-29.6c5.5-10.5,3.1-10.2,13.6-3
		c11.5,7.9,22.9,16.1,36.7,19.7c3.5,0.9,6.9,1.8,10.7,1.3c6.7-1,11.8-4.5,16.3-8.9c3.9-3.8,7.8-7.6,11.6-11.5
		c2.2,23.5,6.8,55.6,8.7,67.8c1.1,7,1.8,6,5,18c-0.8,1.6-2.1,4.2-4,7c-5,7.2-26.6,35.6-29,39c-3.8,5.3-9.4,11-17,19c5,5.4,2,2.5,9,9
		c9.4,8.7,89.8,45,102,50c4.6-0.8,3.2-0.7,10-2c12.8-2.4,33.7-9.6,39-11c0.9-0.3,1.9-0.5,2.9-0.8
		C859.5,1448.3,859.6,1449.2,859.8,1450.1z"/>
	<path class="st1" d="M1033.6,54.2C1033.6,54.2,1033.6,54.2,1033.6,54.2C1033.5,54.2,1033.5,54.2,1033.6,54.2z"/>
</g>
</svg>
